<?xml version="1.0" standalone="no"?>
<!DOCTYPE svg PUBLIC "-//W3C//DTD SVG 20010904//EN"
 "http://www.w3.org/TR/2001/REC-SVG-20010904/DTD/svg10.dtd">
<svg version="1.0" xmlns="http://www.w3.org/2000/svg"
 width="700.000000pt" height="700.000000pt" viewBox="0 0 700.000000 700.000000"
 preserveAspectRatio="xMidYMid meet">
<metadata>
Created by potrace 1.11, written by Peter Selinger 2001-2013
</metadata>
<g transform="translate(0.000000,700.000000) scale(0.100000,-0.100000)"
fill="#000000" stroke="none">
<path d="M2125 6957 c-115 -197 -87 -446 71 -632 50 -58 194 -185 355 -310
101 -78 212 -194 252 -262 56 -97 75 -171 71 -277 -4 -97 3 -103 31 -21 28 85
21 256 -16 374 -49 154 -117 253 -331 475 -209 219 -309 353 -362 486 -21 53
-24 66 -32 145 -3 33 -7 61 -9 63 -2 2 -15 -17 -30 -41z"/>
<path d="M2910 6524 c14 -16 27 -31 30 -34 23 -21 102 -134 122 -175 35 -69
83 -214 103 -310 19 -89 28 -334 15 -405 -4 -25 -10 -61 -13 -80 -9 -68 -60
-245 -97 -334 -134 -326 -248 -500 -768 -1165 -140 -180 -303 -422 -376 -560
-169 -316 -273 -654 -313 -1018 -10 -87 -10 -415 -1 -513 48 -483 247 -917
570 -1242 80 -80 167 -157 212 -187 12 -8 23 -17 26 -20 41 -46 303 -190 457
-252 330 -132 691 -160 1015 -78 459 115 878 454 1075 869 76 158 131 343 149
490 1 8 5 42 9 75 8 64 8 272 0 327 -2 18 -7 56 -10 83 -19 161 -113 432 -209
608 -243 442 -330 641 -372 851 -23 119 -20 322 7 431 35 141 104 268 161 299
45 23 57 46 25 46 -27 0 -200 -126 -293 -213 -323 -302 -490 -754 -440 -1192
12 -102 68 -315 105 -400 11 -25 64 -153 147 -360 137 -339 175 -489 174 -694
0 -172 7 -157 -110 -235 -104 -69 -202 -98 -330 -97 -243 2 -442 95 -605 284
-71 82 -91 113 -149 232 -62 128 -98 244 -111 362 -4 26 -8 64 -11 83 -5 37
-5 362 1 440 16 249 104 574 240 895 14 33 242 493 274 553 82 151 191 436
226 585 13 56 19 87 31 167 13 83 15 204 5 288 -7 53 -15 117 -17 142 -24 197
-95 448 -174 609 -44 89 -157 274 -171 279 -5 2 -9 8 -9 14 0 19 -135 182
-230 278 -127 128 -212 196 -355 280 l-40 23 25 -29z"/>
<path d="M5276 4640 c-3 -8 -10 -41 -15 -73 -16 -89 -63 -218 -111 -301 -23
-41 -87 -133 -141 -205 -142 -190 -188 -278 -220 -421 -16 -74 -18 -295 -3
-310 7 -7 10 -2 10 12 2 67 29 158 77 258 25 51 62 96 178 215 172 176 186
192 228 267 57 101 75 249 50 405 -14 88 -45 176 -53 153z"/>
<path d="M3663 2373 c-46 -80 -107 -227 -123 -299 -15 -67 -18 -165 -8 -233
10 -60 50 -159 82 -204 39 -53 111 -119 145 -133 73 -30 183 -11 221 39 46 61
59 101 57 177 -4 100 -38 168 -167 330 -125 157 -152 209 -158 310 -2 41 -6
76 -7 78 -1 2 -20 -28 -42 -65z"/>
</g>
</svg>
