<?xml version="1.0" encoding="UTF-8" ?>
<!DOCTYPE svg PUBLIC "-//W3C//DTD SVG 1.1//EN" "http://www.w3.org/Graphics/SVG/1.1/DTD/svg11.dtd">
<svg width="335pt" height="335pt" viewBox="0 0 335 335" version="1.1" xmlns="http://www.w3.org/2000/svg">
<g id="#ffffffff">
</g>
<g id="#ffac00ff">
<path fill="#ffac00" opacity="1.00" d=" M 103.03 0.00 L 103.40 0.00 C 102.69 10.81 110.13 19.67 116.76 27.34 C 125.46 36.77 136.40 45.60 139.08 58.84 C 140.11 64.99 140.89 72.11 137.38 77.63 C 137.09 74.07 138.41 70.47 137.27 66.97 C 136.03 61.31 132.51 56.49 128.44 52.49 C 120.35 44.87 110.26 39.35 103.47 30.39 C 96.94 21.77 96.16 8.66 103.03 0.00 Z" />
<path fill="#ffac00" opacity="1.00" d=" M 138.06 21.36 C 152.99 29.32 164.48 42.46 173.14 56.78 C 181.75 70.59 184.69 86.96 186.15 102.93 C 186.36 109.00 185.45 115.08 184.09 120.99 C 185.06 115.34 186.08 109.52 184.64 103.85 C 183.16 112.83 181.18 121.88 176.97 130.03 C 173.37 137.41 168.41 143.99 163.68 150.66 C 153.78 163.08 144.06 175.90 137.42 190.42 C 133.77 199.59 130.75 209.07 128.78 218.75 C 126.98 235.90 126.67 253.80 132.90 270.16 C 137.85 284.50 147.97 298.32 162.88 303.22 C 173.51 307.38 186.04 306.80 196.00 301.10 C 204.57 296.19 209.89 286.81 211.14 277.17 C 212.75 266.63 210.86 255.73 207.01 245.86 C 202.17 231.51 194.21 218.15 191.63 203.09 C 187.32 179.45 197.44 154.11 216.13 139.20 C 219.16 136.99 222.08 134.64 225.18 132.54 C 225.85 132.52 227.19 132.49 227.86 132.48 C 226.78 133.66 225.66 134.99 223.90 135.01 C 216.96 143.67 215.29 155.23 216.49 165.99 C 217.82 180.24 225.42 192.70 231.90 205.09 C 237.89 215.70 243.00 227.01 244.77 239.16 C 247.82 258.57 243.51 279.20 232.42 295.49 C 221.97 310.96 205.82 322.43 187.86 327.46 C 170.70 332.02 151.96 330.52 135.76 323.27 C 107.89 311.91 86.09 286.51 79.57 257.07 C 71.79 224.22 79.30 188.75 97.31 160.49 C 110.79 139.56 128.62 121.69 140.85 99.91 C 144.57 92.55 148.34 85.09 150.17 76.99 C 154.73 61.43 153.07 44.13 145.10 29.95 C 142.77 27.07 140.71 23.96 138.06 21.36 Z" />
<path fill="#ffac00" opacity="1.00" d=" M 252.58 111.89 C 255.81 118.57 256.12 126.19 255.15 133.43 C 253.06 142.54 245.65 148.84 239.13 154.93 C 232.90 160.61 229.68 168.87 229.22 177.19 C 227.16 167.18 228.80 156.13 234.71 147.65 C 237.64 142.72 241.74 138.64 244.75 133.76 C 249.29 127.34 251.62 119.63 252.58 111.89 Z" />
<path fill="#ffac00" opacity="1.00" d=" M 169.36 248.82 C 166.64 237.78 171.82 226.78 177.51 217.61 C 177.61 220.80 177.17 224.18 178.51 227.18 C 181.60 234.39 188.51 239.09 191.71 246.25 C 194.53 251.35 194.05 258.61 189.30 262.40 C 185.50 264.72 180.17 264.23 176.92 261.16 C 173.28 257.90 170.62 253.53 169.36 248.82 Z" />
</g>
<g id="#ff7600ff">
<path fill="#ff7600" opacity="1.00" d=" M 184.64 103.85 C 186.08 109.52 185.06 115.34 184.09 120.99 C 177.68 147.25 159.56 168.82 153.01 195.04 C 150.44 204.47 148.21 214.12 148.29 223.94 C 147.98 234.74 148.14 245.84 152.28 256.00 C 156.75 268.04 165.65 279.18 178.11 283.46 C 186.06 285.82 195.04 286.42 202.72 282.80 C 205.84 281.43 208.43 279.18 211.14 277.17 C 209.89 286.81 204.57 296.19 196.00 301.10 C 186.04 306.80 173.51 307.38 162.88 303.22 C 147.97 298.32 137.85 284.50 132.90 270.16 C 126.67 253.80 126.98 235.90 128.78 218.75 C 130.75 209.07 133.77 199.59 137.42 190.42 C 144.06 175.90 153.78 163.08 163.68 150.66 C 168.41 143.99 173.37 137.41 176.97 130.03 C 181.18 121.88 183.16 112.83 184.64 103.85 Z" />
</g>
</svg>
