<?xml version="1.0" encoding="UTF-8" ?>
<!DOCTYPE svg PUBLIC "-//W3C//DTD SVG 1.1//EN" "http://www.w3.org/Graphics/SVG/1.1/DTD/svg11.dtd">
<svg width="226pt" height="435pt" viewBox="0 0 226 435" version="1.1" xmlns="http://www.w3.org/2000/svg">
<g id="#ffab00ff">
<path fill="#ffab00" opacity="1.00" d=" M 45.77 0.00 L 46.18 0.00 C 46.46 3.87 46.96 7.81 48.69 11.34 C 53.72 21.74 62.30 29.70 70.21 37.89 C 76.55 44.85 82.29 53.22 82.78 62.93 C 82.85 67.16 83.45 71.73 81.22 75.56 C 80.64 69.71 80.00 63.49 76.40 58.60 C 68.58 47.71 55.75 41.98 47.22 31.76 C 40.00 23.06 38.85 9.19 45.77 0.00 Z" />
<path fill="#ffab00" opacity="1.00" d=" M 195.63 111.52 C 199.07 118.56 199.00 126.53 198.30 134.15 C 197.61 135.79 196.94 137.43 196.28 139.08 C 194.91 141.40 193.49 143.71 191.68 145.71 C 190.88 146.59 190.08 147.47 189.31 148.37 C 188.49 149.22 187.70 150.08 186.90 150.94 C 186.03 151.53 185.16 152.12 184.29 152.71 L 184.45 153.76 C 184.01 153.77 183.14 153.78 182.70 153.79 C 182.66 154.27 182.60 155.24 182.56 155.73 C 182.10 155.73 181.16 155.74 180.70 155.75 C 180.64 156.04 180.51 156.62 180.45 156.91 C 176.59 161.17 174.00 166.42 173.12 172.11 L 171.45 173.10 C 171.37 164.67 172.85 156.13 176.89 148.65 C 179.52 143.64 183.66 139.70 186.72 134.98 C 187.55 133.72 188.38 132.47 189.25 131.24 C 190.69 128.54 191.87 125.72 193.07 122.92 C 194.10 119.16 194.88 115.35 195.63 111.52 Z" />
<path fill="#ffab00" opacity="1.00" d=" M 117.15 223.08 C 118.08 220.98 119.18 218.97 120.48 217.07 C 120.62 219.71 120.64 222.35 120.74 224.99 C 120.96 225.54 121.38 226.64 121.60 227.19 C 122.53 228.86 123.52 230.50 124.65 232.05 C 125.63 232.80 126.13 233.92 126.77 234.93 C 129.55 238.04 132.09 241.33 134.32 244.85 C 136.87 249.69 137.53 255.80 134.40 260.54 C 133.72 261.27 133.06 262.02 132.41 262.78 C 132.14 262.83 131.58 262.92 131.31 262.97 C 127.24 264.11 123.12 262.98 119.47 261.12 L 118.92 260.88 C 117.60 258.95 116.18 257.09 114.78 255.23 C 112.33 250.91 111.43 245.97 111.29 241.07 C 111.82 235.75 113.59 230.64 115.73 225.77 C 116.20 224.87 116.68 223.97 117.15 223.08 Z" />
</g>
<g id="#ffac00ff">
<path fill="#ffac00" opacity="1.00" d=" M 79.99 21.91 C 80.50 21.83 81.51 21.67 82.02 21.58 C 84.69 23.38 87.47 25.00 90.14 26.79 C 93.83 29.82 97.69 32.71 100.78 36.37 C 102.61 38.40 104.43 40.43 106.33 42.39 C 109.80 46.69 112.84 51.30 115.90 55.89 C 118.21 60.64 121.19 65.07 122.80 70.14 C 125.75 78.43 127.60 87.10 128.41 95.86 C 127.38 107.56 125.35 119.43 119.99 130.00 C 114.49 140.97 106.67 150.51 99.26 160.22 C 90.71 171.56 82.58 183.52 77.93 197.06 C 75.47 204.41 73.01 211.83 71.86 219.52 C 69.59 237.87 70.04 257.23 77.60 274.40 C 82.65 286.30 91.29 297.43 103.56 302.39 C 114.09 306.97 126.70 307.28 137.08 302.11 C 146.33 297.60 153.22 287.97 153.55 277.57 C 153.70 277.15 154.00 276.29 154.14 275.86 C 154.76 271.28 154.82 266.62 153.95 262.07 C 153.65 259.75 153.44 257.41 152.91 255.12 C 152.07 252.12 150.93 249.21 150.05 246.22 C 146.75 234.34 140.26 223.64 136.95 211.75 C 134.21 202.14 132.75 191.90 134.81 182.00 C 136.26 169.42 142.46 158.08 149.91 148.07 C 150.62 147.07 151.40 146.14 152.19 145.21 C 154.68 142.71 157.32 140.37 160.12 138.22 C 162.61 136.33 165.18 134.54 167.84 132.89 C 167.60 133.86 167.33 134.82 167.04 135.78 C 162.76 140.06 160.97 146.08 159.78 151.85 C 159.32 157.53 159.03 163.24 160.04 168.87 C 160.51 172.98 161.80 176.92 163.18 180.80 C 164.07 182.86 164.98 184.92 165.80 187.02 C 166.24 187.99 166.68 188.96 167.11 189.93 C 167.98 191.70 168.89 193.44 169.80 195.18 C 170.91 197.01 171.93 198.90 172.87 200.83 C 177.44 209.65 182.45 218.34 185.35 227.90 C 186.50 232.38 187.94 236.84 188.10 241.51 C 188.48 248.28 188.41 255.07 188.00 261.84 C 187.77 266.97 186.29 271.94 184.84 276.84 C 184.66 277.38 184.29 278.45 184.10 278.98 C 181.15 286.57 177.30 293.81 172.20 300.18 C 168.76 304.70 164.60 308.65 160.22 312.25 C 158.14 313.86 156.12 315.55 154.01 317.13 C 152.83 317.80 151.65 318.48 150.52 319.24 C 147.36 320.93 144.16 322.53 140.94 324.11 C 139.35 324.75 137.76 325.38 136.20 326.10 C 121.32 331.07 105.04 331.35 89.88 327.45 C 86.52 326.50 83.21 325.42 79.96 324.14 C 78.38 323.30 76.73 322.59 75.12 321.80 C 69.26 319.53 64.04 315.89 58.94 312.28 C 56.95 310.74 54.96 309.21 53.13 307.48 L 52.78 307.58 C 52.02 306.84 51.23 306.12 50.44 305.41 C 48.15 303.13 45.88 300.82 43.64 298.49 C 42.17 296.56 40.60 294.72 39.17 292.76 C 37.43 290.50 35.62 288.29 34.18 285.81 C 32.64 283.20 31.18 280.55 29.84 277.83 C 29.18 276.63 28.50 275.45 27.82 274.27 C 27.69 273.67 27.43 272.48 27.30 271.89 C 20.35 256.00 18.43 238.23 19.66 221.05 C 21.02 209.49 22.78 197.87 27.17 187.02 C 27.48 186.03 27.80 185.05 28.12 184.06 C 29.35 180.93 30.73 177.85 32.24 174.84 C 35.52 167.85 39.36 161.12 43.86 154.84 C 45.32 152.76 46.85 150.72 48.52 148.80 C 48.50 148.60 48.46 148.20 48.43 148.00 C 49.93 146.30 51.37 144.55 52.77 142.77 C 53.90 141.33 55.02 139.88 56.20 138.48 C 57.48 136.69 58.82 134.96 60.19 133.25 C 62.75 130.11 65.13 126.83 67.71 123.70 C 70.78 119.65 73.55 115.38 76.63 111.34 C 77.63 109.75 78.63 108.16 79.66 106.59 C 81.53 103.77 83.16 100.81 84.75 97.84 C 85.19 96.93 85.63 96.03 86.06 95.12 C 94.96 78.08 98.74 57.48 92.13 39.00 C 90.78 35.85 89.15 32.82 87.92 29.62 C 87.73 29.62 87.35 29.62 87.17 29.62 C 85.86 27.20 84.17 25.03 82.67 22.74 C 81.78 22.46 80.89 22.19 79.99 21.91 Z" />
</g>
<g id="#ff7600ff">
<path fill="#ff7600" opacity="1.00" d=" M 128.41 95.86 C 131.47 113.20 125.47 130.54 117.84 145.89 C 115.66 151.10 112.80 155.97 110.23 160.99 C 106.05 169.07 102.26 177.35 98.88 185.80 C 95.89 195.36 93.36 205.07 91.90 214.99 C 91.05 223.98 91.08 233.07 91.79 242.07 C 92.78 248.28 94.70 254.27 96.95 260.13 C 97.20 260.54 97.71 261.34 97.96 261.74 C 103.45 272.32 112.73 281.95 124.86 284.17 C 130.50 285.53 136.44 285.86 142.03 284.07 C 146.33 282.81 149.95 280.13 153.55 277.57 C 153.22 287.97 146.33 297.60 137.08 302.11 C 126.70 307.28 114.09 306.97 103.56 302.39 C 91.29 297.43 82.65 286.30 77.60 274.40 C 70.04 257.23 69.59 237.87 71.86 219.52 C 73.01 211.83 75.47 204.41 77.93 197.06 C 82.58 183.52 90.71 171.56 99.26 160.22 C 106.67 150.51 114.49 140.97 119.99 130.00 C 125.35 119.43 127.38 107.56 128.41 95.86 Z" />
</g>
<g id="#7a591a7b">
<path fill="#7a591a" opacity="0.48" d=" M 146.97 150.95 C 147.81 149.85 148.86 148.95 149.91 148.07 C 142.46 158.08 136.26 169.42 134.81 182.00 C 132.75 191.90 134.21 202.14 136.95 211.75 C 140.26 223.64 146.75 234.34 150.05 246.22 C 147.64 242.00 146.38 237.25 144.33 232.86 C 138.44 219.99 133.20 206.41 132.88 192.08 C 133.26 177.36 138.14 162.75 146.97 150.95 Z" />
</g>
<g id="#82622585">
<path fill="#826225" opacity="0.52" d=" M 171.15 177.10 C 170.32 167.44 170.53 156.57 176.89 148.65 C 172.85 156.13 171.37 164.67 171.45 173.10 L 173.12 172.11 C 173.26 175.80 173.50 179.49 173.39 183.19 C 173.04 181.63 172.73 180.06 172.45 178.50 C 172.13 178.15 171.48 177.45 171.15 177.10 Z" />
</g>
<g id="#c9964bd4">
<path fill="#c9964b" opacity="0.83" d=" M 188.10 241.51 C 189.62 248.12 189.67 255.25 188.00 261.84 C 188.41 255.07 188.48 248.28 188.10 241.51 Z" />
</g>
<g id="#b48834bc">
<path fill="#b48834" opacity="0.74" d=" M 119.47 261.12 C 123.12 262.98 127.24 264.11 131.31 262.97 C 127.80 266.08 122.27 264.44 119.47 261.12 Z" />
</g>
<g id="#bf2210ff">
<path fill="#bf2210" opacity="1.00" d=" M 105.03 340.87 C 108.91 338.91 113.88 338.28 117.76 340.59 C 117.75 343.56 117.63 346.65 116.14 349.32 C 109.83 361.91 98.11 371.36 85.01 376.19 C 81.16 377.65 76.95 377.72 73.06 378.95 C 64.86 386.97 57.49 396.19 47.37 401.98 C 47.32 402.72 47.27 403.47 47.22 404.23 C 52.53 404.45 57.80 405.60 63.13 405.25 C 69.90 404.61 76.83 403.98 83.09 401.11 C 86.69 399.59 89.75 397.09 93.21 395.32 C 93.99 395.39 95.54 395.52 96.32 395.59 C 91.31 401.15 84.08 403.82 77.13 406.03 C 69.34 408.57 61.04 407.74 52.99 407.71 C 48.28 407.83 43.78 405.78 39.07 406.23 C 35.08 407.37 31.29 409.24 27.13 409.80 C 19.45 411.44 10.48 412.22 3.90 407.11 C 2.05 405.90 2.22 403.63 2.18 401.71 C 7.39 397.09 14.78 398.28 21.08 399.19 C 27.72 400.13 34.15 402.87 40.93 402.47 C 50.83 397.38 59.11 389.78 66.49 381.56 C 66.66 380.62 66.78 379.68 66.86 378.73 C 62.89 378.79 58.93 378.58 54.98 378.23 C 49.29 376.65 43.29 373.66 40.97 367.86 C 38.59 362.37 40.29 356.15 43.13 351.18 C 46.30 346.20 50.80 341.51 56.76 340.16 C 56.67 341.63 56.46 343.25 54.83 343.79 C 48.96 346.88 44.60 352.56 43.03 358.99 C 41.61 364.31 44.23 370.41 49.23 372.83 C 55.31 375.94 62.37 376.69 69.11 376.23 C 71.95 375.93 73.61 373.31 75.36 371.36 C 79.32 366.36 83.34 361.41 87.47 356.55 C 92.65 350.67 97.90 344.47 105.03 340.87 M 104.59 343.57 C 96.85 348.43 91.12 355.74 85.29 362.64 C 82.35 366.62 78.06 369.94 76.87 374.95 C 83.27 375.51 88.87 371.77 94.52 369.34 C 99.53 365.50 104.80 361.83 108.67 356.75 C 111.95 352.20 115.60 347.38 115.73 341.51 C 111.92 341.21 107.87 341.38 104.59 343.57 M 4.41 402.72 C 4.71 403.38 5.31 404.69 5.60 405.35 C 13.86 409.96 23.76 408.46 32.31 405.55 C 32.01 405.20 31.41 404.49 31.12 404.14 C 27.28 402.76 23.19 402.44 19.21 401.73 C 14.29 401.12 9.04 400.53 4.41 402.72 Z" />
</g>
<g id="#c12111ff">
<path fill="#c12111" opacity="1.00" d=" M 192.98 356.98 C 194.05 355.07 196.51 355.58 198.31 355.12 C 201.07 362.35 197.34 369.81 195.37 376.76 C 201.94 376.94 208.51 376.15 215.06 376.62 C 215.67 377.02 216.90 377.81 217.52 378.20 C 209.78 379.84 201.81 379.24 193.98 380.08 C 192.71 384.42 190.46 388.47 189.76 392.97 C 190.01 398.62 193.48 405.48 199.92 405.52 C 209.02 405.45 216.25 399.13 222.82 393.58 C 223.61 393.40 225.20 393.03 225.99 392.84 C 224.96 394.35 223.92 395.85 222.81 397.31 C 218.13 401.26 213.05 404.91 207.30 407.15 C 203.11 408.66 198.14 409.21 194.15 406.83 C 190.13 404.30 188.32 399.64 186.98 395.31 C 177.41 402.99 164.67 409.51 152.16 405.99 C 151.98 404.45 151.07 403.78 149.42 403.97 C 148.29 402.49 147.45 400.81 147.15 398.97 C 150.47 400.78 153.61 404.08 157.75 403.35 C 160.21 403.19 163.84 400.98 162.17 398.17 C 159.85 395.57 157.38 392.73 154.18 391.24 C 149.33 394.24 146.01 399.15 141.08 402.06 C 134.51 406.08 126.87 410.09 118.93 408.39 C 114.92 407.56 113.11 403.59 111.54 400.26 C 107.64 403.06 103.81 407.38 98.47 405.92 C 98.16 403.67 97.36 401.32 98.20 399.10 C 99.32 395.88 100.43 391.72 104.29 390.95 C 102.97 395.26 101.02 399.39 100.35 403.89 C 103.00 402.90 105.63 401.64 107.56 399.50 C 110.62 396.69 112.30 392.35 116.35 390.71 C 115.73 394.85 115.29 399.03 115.50 403.23 C 118.07 404.76 120.83 406.70 124.00 406.02 C 134.45 404.45 143.19 397.73 150.57 390.56 C 154.20 387.34 157.24 383.21 161.94 381.45 C 161.16 384.75 158.62 387.11 156.85 389.88 C 159.27 392.08 162.13 393.85 164.20 396.41 C 165.83 398.58 164.73 401.26 164.51 403.67 C 172.83 401.99 180.27 397.57 186.39 391.80 C 186.27 388.03 186.25 384.26 186.22 380.49 C 179.77 380.95 173.35 382.21 166.86 381.62 C 167.83 380.65 168.35 378.78 169.96 378.76 C 175.44 378.26 180.97 378.46 186.43 377.63 C 188.04 370.62 188.96 363.12 192.98 356.98 M 194.79 358.56 C 191.44 364.33 190.35 371.01 189.44 377.52 C 190.36 377.49 191.27 377.46 192.19 377.43 C 194.00 371.17 197.09 365.12 196.88 358.45 C 196.35 358.48 195.31 358.53 194.79 358.56 M 188.66 380.21 C 188.48 381.84 188.48 383.48 188.44 385.13 C 188.92 385.01 189.88 384.76 190.36 384.64 C 190.77 382.88 191.18 381.12 191.55 379.36 C 190.57 379.61 189.59 379.84 188.66 380.21 Z" />
</g>
<g id="#7f342da4">
<path fill="#7f342d" opacity="0.64" d=" M 222.82 393.58 C 223.86 392.95 224.92 392.35 226.00 391.78 L 226.00 394.63 C 224.95 395.54 223.87 396.41 222.81 397.31 C 223.92 395.85 224.96 394.35 225.99 392.84 C 225.20 393.03 223.61 393.40 222.82 393.58 Z" />
</g>
<g id="#702e259c">
<path fill="#702e25" opacity="0.61" d=" M 149.42 403.97 C 151.07 403.78 151.98 404.45 152.16 405.99 C 150.89 405.81 149.98 405.14 149.42 403.97 Z" />
</g>
</svg>
